<svg width="50" height="45" viewBox="0 0 50 45" fill="none" xmlns="http://www.w3.org/2000/svg">
<path fill-rule="evenodd" clip-rule="evenodd" d="M36.4559 26.795C35.832 26.5174 32.7736 25.1797 32.2042 24.9934C31.6348 24.809 31.2204 24.7177 30.8038 25.2729C30.3893 25.8244 29.1982 27.0726 28.836 27.4415C28.4718 27.8123 28.1096 27.857 27.4879 27.5813C26.8662 27.3018 24.8607 26.7186 22.4848 24.8332C20.6363 23.3651 19.3866 21.5523 19.0244 20.9971C18.6623 20.4438 18.9847 20.1438 19.2966 19.8681C19.5771 19.6203 19.9183 19.2216 20.2302 18.8993C20.5421 18.5751 20.6447 18.3441 20.852 17.9733C21.0613 17.6044 20.9566 17.2821 20.7996 17.0045C20.6447 16.7269 19.4013 14.0012 18.8821 12.8927C18.3776 11.8139 17.8647 11.9611 17.4837 11.9425C17.1195 11.9276 16.705 11.9238 16.2905 11.9238C15.876 11.9238 15.202 12.0617 14.6326 12.6169C14.0611 13.1703 12.4555 14.5098 12.4555 17.2355C12.4555 19.9594 14.6828 22.5919 14.9947 22.9627C15.3066 23.3315 19.3803 28.9245 25.6206 31.3223C27.1069 31.8924 28.2645 32.2334 29.1668 32.4868C30.6572 32.9097 32.0137 32.8501 33.0855 32.7066C34.2788 32.5482 36.7657 31.367 37.2848 30.0741C37.8019 28.7811 37.8019 27.6725 37.647 27.4415C37.4921 27.2105 37.0776 27.0726 36.4538 26.795H36.4559ZM25.1057 40.5875H25.0973C21.3908 40.5881 17.7525 39.7013 14.5635 38.0201L13.8099 37.6214L5.97654 39.451L8.06781 32.6544L7.57587 31.9576C5.50373 29.0221 4.40714 25.6246 4.4128 22.1578C4.41699 12.004 13.6989 3.74302 25.114 3.74302C30.6405 3.74302 35.8362 5.662 39.7424 9.14226C41.6691 10.8499 43.1962 12.8807 44.2354 15.117C45.2745 17.3533 45.8051 19.7508 45.7964 22.1708C45.7922 32.3247 36.5103 40.5875 25.1057 40.5875ZM42.715 6.49853C40.4085 4.43222 37.6642 2.79385 34.6411 1.67835C31.618 0.562848 28.3762 -0.00759441 25.1036 7.63448e-05C11.3837 7.63448e-05 0.213523 9.93966 0.209336 22.1559C0.202978 26.0437 1.34891 29.8643 3.5315 33.232L0 44.7142L13.1965 41.6327C16.8471 43.4028 20.938 44.3303 25.0952 44.3304H25.1057C38.8255 44.3304 49.9957 34.3908 49.9999 22.1727C50.01 19.2612 49.3714 16.3768 48.1209 13.6864C46.8705 10.996 45.0331 8.55291 42.715 6.49853Z" fill="#0EA526"/>
</svg>
