<svg width="46" height="40" viewBox="0 0 46 40" fill="none" xmlns="http://www.w3.org/2000/svg">
<path d="M16.0008 33.5305L15.9581 33.2264L15.6676 33.1269C15.2057 32.9689 14.773 32.7799 14.3688 32.5605L14.3682 32.5602C13.9483 32.3331 13.5378 32.0898 13.1369 31.8303L12.9257 31.6936L12.69 31.7817L6.38024 34.1412L0.687354 25.3897L6.06596 21.7646L6.33082 21.5861L6.2802 21.2708C6.24659 21.0614 6.23034 20.8626 6.23034 20.674V19.324C6.23034 19.1369 6.24656 18.9388 6.2802 18.7292L6.33082 18.4139L6.06596 18.2354L0.687354 14.6103L6.38024 5.85878L12.69 8.21833L12.9257 8.30644L13.1369 8.16974C13.535 7.91201 13.9519 7.66998 14.3877 7.44376C14.8198 7.2194 15.2504 7.02791 15.6795 6.8688L15.9593 6.76505L16.0008 6.46954L16.8392 0.5H28.3294L29.1678 6.46954L29.2105 6.77361L29.501 6.87305C29.9629 7.03115 30.3964 7.22017 30.8023 7.43964C31.2208 7.66676 31.6306 7.91012 32.0317 8.16974L32.2429 8.30644L32.4785 8.21833L38.7883 5.85878L44.4812 14.6103L39.1026 18.2354L38.8377 18.4139L38.8883 18.7292C38.922 18.9388 38.9382 19.1369 38.9382 19.324V20.674C38.9382 20.8333 38.9108 21.007 38.8498 21.1972L38.735 21.5547L39.0464 21.7646L44.425 25.3897L38.7327 34.1403L32.4798 31.7822L32.2436 31.6931L32.0317 31.8303C31.6335 32.088 31.2166 32.33 30.7809 32.5562C30.3487 32.7806 29.9181 32.9721 29.4891 33.1312L29.2093 33.235L29.1678 33.5305L28.3294 39.5H16.8392L16.0008 33.5305ZM16.771 14.6785L16.7708 14.6786C15.1562 16.1341 14.3315 17.9164 14.3315 20C14.3315 22.0836 15.1562 23.8659 16.7708 25.3214L16.771 25.3215C18.3883 26.778 20.3743 27.5 22.6966 27.5C24.9839 27.5 26.9582 26.7766 28.5908 25.3235C30.2254 23.8687 31.0618 22.0859 31.0618 20C31.0618 17.9141 30.2254 16.1313 28.5908 14.6765C26.9582 13.2234 24.9839 12.5 22.6966 12.5C20.3743 12.5 18.3883 13.222 16.771 14.6785Z" stroke="#343335"/>
</svg>
