<svg width="50" height="45" viewBox="0 0 50 45" fill="none" xmlns="http://www.w3.org/2000/svg">
<path d="M19.5361 30.4083H15.0917V17.5553H19.5361V30.4083ZM17.3139 15.9063C15.7111 15.9063 14.9083 15.2462 14.9083 13.9285C14.9034 13.6641 14.9629 13.4018 15.0828 13.1598C15.2026 12.9178 15.3801 12.7018 15.6028 12.5268C16.066 12.1421 16.6806 11.9352 17.3139 11.9507C18.9167 11.9507 19.7194 12.6133 19.7194 13.931C19.7194 15.2487 18.9194 15.9063 17.3139 15.9063ZM36.0194 30.4083H31.4833V23.2389C31.4833 21.3724 30.7389 20.4379 29.2583 20.4379C28.0861 20.4379 27.3167 20.9595 26.9417 22.0028C26.8222 22.1684 26.7583 22.4997 26.7583 22.9917V30.4083H22.2222V21.674C22.2222 19.6962 22.1889 18.3241 22.1306 17.5553H26.0194L26.2972 19.2833C27.3167 17.9088 28.7972 17.224 30.8333 17.224C32.3806 17.224 33.6278 17.7036 34.5833 18.6653C35.5444 19.627 36.0222 21.0139 36.0222 22.8285V30.4083H36.0194ZM25 44.5C11.2139 44.5 0 34.5196 0 22.25C0 9.98036 11.2139 0 25 0C38.7861 0 50 9.98036 50 22.25C50 34.5196 38.7861 44.5 25 44.5ZM25 4.94444C14.2806 4.94444 5.55556 12.7097 5.55556 22.25C5.55556 31.7903 14.2806 39.5556 25 39.5556C35.7194 39.5556 44.4444 31.7903 44.4444 22.25C44.4444 12.7097 35.7194 4.94444 25 4.94444Z" fill="black"/>
</svg>
