<svg width="50" height="52" viewBox="0 0 50 52" fill="none" xmlns="http://www.w3.org/2000/svg">
<path d="M49.9762 26.0646C49.9762 23.9682 49.8061 22.4383 49.4379 20.8517H25.498V30.3142H39.5502C39.267 32.6658 37.7371 36.2072 34.3373 38.5869L34.2896 38.9037L41.859 44.7676L42.3834 44.8199C47.1996 40.3719 49.9762 33.8273 49.9762 26.0646Z" fill="#4285F4"/>
<path d="M49.9762 26.0647C49.9762 23.9682 49.8061 22.4383 49.4379 20.8518H25.498V30.3143H39.5502C39.267 32.6659 37.7371 36.2073 34.3373 38.587L34.2896 38.9038L41.859 44.7676L42.3834 44.82C47.1996 40.3719 49.9762 33.8274 49.9762 26.0647Z" fill="#4285F4"/>
<path d="M25.498 50.9961C32.3824 50.9961 38.1619 48.7295 42.3834 44.8199L34.3373 38.5869C32.1842 40.0885 29.2943 41.1367 25.498 41.1367C18.7553 41.1367 13.0324 36.6889 10.9924 30.541L10.6934 30.5664L2.82266 36.6576L2.71973 36.9437C6.9127 45.273 15.5254 50.9961 25.498 50.9961Z" fill="#34A853"/>
<path d="M10.9924 30.541C10.4541 28.9545 10.1426 27.2545 10.1426 25.498C10.1426 23.7414 10.4541 22.0416 10.9641 20.4551L10.9498 20.1172L2.98047 13.9281L2.71973 14.0521C0.991602 17.5086 0 21.39 0 25.498C0 29.606 0.991602 33.4873 2.71973 36.9437L10.9924 30.541Z" fill="#FBBC05"/>
<path d="M25.498 9.85918C30.2859 9.85918 33.5156 11.9273 35.3572 13.6557L42.5533 6.62949C38.1338 2.52148 32.3824 0 25.498 0C15.5254 0 6.9127 5.72285 2.71973 14.0521L10.9641 20.4551C13.0324 14.3072 18.7553 9.85918 25.498 9.85918Z" fill="#EB4335"/>
</svg>
