<svg width="42" height="38" viewBox="0 0 42 38" fill="none" xmlns="http://www.w3.org/2000/svg">
<path fill-rule="evenodd" clip-rule="evenodd" d="M35.6072 3.89635C34.637 2.61537 33.4726 1.60283 32.0969 0.928551C30.4718 0.132056 28.6765 -0.131262 26.7798 0.0592831C23.6578 0.372924 21.4648 2.12719 20.2247 4.67139C19.222 6.72859 18.8557 9.25159 18.9319 11.9185C16.5127 12.7401 14.3786 12.2009 12.4423 10.9647C10.0931 9.46501 8.11056 6.95816 6.69921 4.65766C6.27991 3.97421 5.49296 3.60724 4.69988 3.72534C3.9068 3.84344 3.26092 4.42378 3.05895 5.19975C2.05571 9.05417 0.945712 14.149 3.12798 19.8179L4.99446 19.0994L3.12798 19.8179C4.30013 22.8628 6.65323 25.4005 9.95185 27.5072C6.77708 28.8114 4.2789 29.1604 2.3747 28.7975C1.40926 28.6135 0.453208 29.1582 0.119268 30.0826C-0.214672 31.0069 0.172476 32.0369 1.03259 32.5124C1.07833 32.5377 1.13124 32.5672 1.1911 32.6005C2.39388 33.27 6.40198 35.5011 11.3791 36.8723C16.552 38.2975 23.208 38.9139 28.8799 35.3701C39.3143 28.8506 39.2393 17.7898 39.2045 12.6599C39.2039 12.5676 39.2033 12.4772 39.2027 12.3887C39.3194 12.1983 39.4648 11.9872 39.6553 11.7154L39.6909 11.6648C39.9826 11.2489 40.3595 10.7117 40.7064 10.0546C41.467 8.61427 42.0003 6.77075 42.0003 3.94373C42.0003 3.1492 41.53 2.43002 40.8021 2.11149C40.0742 1.79296 39.2268 1.93549 38.6432 2.47461C37.4157 3.60846 36.4367 3.94989 35.6072 3.89635ZM30.3364 4.52032C29.4763 4.09872 28.447 3.91192 27.1796 4.03925C25.5555 4.20241 24.5072 5.01472 23.8203 6.42396C23.0772 7.94864 22.7613 10.2109 23.001 13.0376C23.07 13.8502 22.6385 14.6233 21.9107 14.9914C17.5032 17.2203 13.4843 16.3755 10.2899 14.3363C8.66594 13.2995 7.24199 11.9524 6.03195 10.5416C5.71129 13.019 5.7993 15.6231 6.86094 18.3809C7.89432 21.0653 10.4838 23.6027 15.1784 25.8154C15.8604 26.1369 16.3037 26.8146 16.3249 27.5683C16.3461 28.322 15.9416 29.0236 15.2787 29.3829C13.2027 30.508 11.2108 31.392 9.31624 31.9964C10.2914 32.3624 11.3412 32.7128 12.4416 33.016C17.2144 34.331 22.5039 34.6373 26.7604 31.9778C35.2498 26.6736 35.2199 17.7668 35.2024 12.5504C35.2016 12.3216 35.2009 12.0999 35.2009 11.8859C35.2009 11.5878 35.2675 11.2934 35.396 11.0244C35.6976 10.3924 36.0727 9.85748 36.3644 9.44151L36.3801 9.41912C36.6931 8.97276 36.943 8.61541 37.1693 8.18694C37.2465 8.04064 37.3238 7.8804 37.3985 7.70178C36.2657 7.98824 35.0814 7.98389 33.8628 7.61984C33.411 7.48488 33.0215 7.19465 32.7629 6.8004C32.0188 5.66588 31.2007 4.94392 30.3364 4.52032Z" fill="black"/>
</svg>
